{"accessors":[{"bufferView":2,"componentType":5126,"count":9022,"max":[0.9683324098587036,0.9793252348899841,0.9683302640914917],"min":[-0.9683268666267395,-0.9793252348899841,-0.9683302640914917],"type":"VEC3"},{"bufferView":2,"byteOffset":108264,"componentType":5126,"count":9022,"max":[0.9992534518241882,0.9993330836296082,0.9992555379867554],"min":[-0.9992573857307434,-0.9993331432342529,-0.9992555379867554],"type":"VEC3"},{"bufferView":1,"componentType":5126,"count":9022,"max":[0.9966906309127808,0.9375002980232239],"min":[0,0],"type":"VEC2"},{"bufferView":0,"componentType":5125,"count":49440,"type":"SCALAR"},{"bufferView":2,"byteOffset":216528,"componentType":5126,"count":4968,"max":[0.9437736868858337,0.9657240509986877,0.9437605142593384],"min":[-0.9437462091445923,-0.9657241106033325,-0.9437605142593384],"type":"VEC3"},{"bufferView":2,"byteOffset":276144,"componentType":5126,"count":4968,"max":[1,0.9997748136520386,1],"min":[-1,-0.9997747540473938,-1],"type":"VEC3"},{"bufferView":1,"byteOffset":72176,"componentType":5126,"count":4968,"max":[0.9990700483322144,0.9377903938293457],"min":[0,0],"type":"VEC2"},{"bufferView":0,"byteOffset":197760,"componentType":5125,"count":25680,"type":"SCALAR"}],"asset":{"extras":{"author":"RexSavage (https://sketchfab.com/RexSavage)","license":"CC-BY-4.0 (http://creativecommons.org/licenses/by/4.0/)","source":"https://sketchfab.com/3d-models/basketball-3a97e77c4639427985ace48bd8540674","title":"Basketball"},"generator":"Sketchfab-15.12.0","version":"2.0"},"bufferViews":[{"buffer":0,"byteLength":300480,"name":"floatBufferViews","target":34963},{"buffer":0,"byteLength":111920,"byteOffset":300480,"byteStride":8,"name":"floatBufferViews","target":34962},{"buffer":0,"byteLength":335760,"byteOffset":412400,"byteStride":12,"name":"floatBufferViews","target":34962}],"buffers":[{"byteLength":748160,"uri":"data:application/octet-stream;base64,"}],"materials":[{"doubleSided":true,"name":"Material.001","pbrMetallicRoughness":{"baseColorFactor":[0.8,0.0957325,0,1],"metallicFactor":0.385321,"roughnessFactor":0.775229}},{"doubleSided":true,"name":"Material.002","pbrMetallicRoughness":{"baseColorFactor":[0,0,0,1],"metallicFactor":0,"roughnessFactor":0.5}}],"meshes":[{"name":"Object_0","primitives":[{"attributes":{"NORMAL":1,"POSITION":0,"TEXCOORD_0":2},"indices":3,"material":0,"mode":4}]},{"name":"Object_1","primitives":[{"attributes":{"NORMAL":5,"POSITION":4,"TEXCOORD_0":6},"indices":7,"material":1,"mode":4}]}],"nodes":[{"children":[1],"matrix":[1,0,0,0,0,2.220446049250313e-16,-1,0,0,1,2.220446049250313e-16,0,0,0,0,1],"name":"Sketchfab_model"},{"children":[2],"name":"root"},{"children":[3],"matrix":[1,0,0,0,0,2.220446049250313e-16,1,0,0,-1,2.220446049250313e-16,0,0,0,0,1],"name":"GLTF_SceneRootNode"},{"children":[4,5],"matrix":[0.43500349330738464,-0.8516403435457663,0.2923708023309121,0,0.8726817663021217,0.47874049588639767,0.0960940807867744,0,-0.221807338864568,0.21334540736489999,0.9514647873579577,0,0,0,0,1],"name":"Sphere_0"},{"mesh":0,"name":"Object_4"},{"mesh":1,"name":"Object_5"}],"scene":0,"scenes":[{"name":"Sketchfab_Scene","nodes":[0]}]}